<svg version="1.1" viewBox="14.0 17.0 927.0 498.0" fill="none" stroke="none" stroke-linecap="square" stroke-miterlimit="10" xmlns:xlink="http://www.w3.org/1999/xlink" xmlns="http://www.w3.org/2000/svg"><clipPath id="g2e569dc7464_0_49.0"><path d="m0 0l960.0 0l0 540.0l-960.0 0l0 -540.0z" clip-rule="nonzero"/></clipPath><g clip-path="url(#g2e569dc7464_0_49.0)"><path fill="#dd7c09" d="m60.346558 83.45292l0 0c0 -19.997456 16.211136 -36.20859 36.208588 -36.20859l812.1498 0c9.603149 0 18.812927 3.8148232 25.603333 10.605251c6.7904663 6.790428 10.605286 16.000221 10.605286 25.60334l0 397.03165c0 19.997467 -16.211182 36.20862 -36.20862 36.20862l-812.1498 0c-19.997452 0 -36.208588 -16.211151 -36.208588 -36.20862z" fill-rule="evenodd"/><path fill="#ffffff" d="m14.97357 58.154762l0 0c0 -19.997452 16.211138 -36.208588 36.208588 -36.208588l812.1498 0c9.603088 0 18.812927 3.8148212 25.603333 10.6052475c6.7904053 6.790428 10.605286 16.000225 10.605286 25.60334l0 397.03165c0 19.997467 -16.211182 36.208588 -36.20862 36.208588l-812.1498 0c-19.997452 0 -36.208588 -16.21112 -36.208588 -36.208588z" fill-rule="evenodd"/><path stroke="#cccccc" stroke-width="1.0" stroke-linejoin="round" stroke-linecap="butt" d="m14.97357 58.154762l0 0c0 -19.997452 16.211138 -36.208588 36.208588 -36.208588l812.1498 0c9.603088 0 18.812927 3.8148212 25.603333 10.6052475c6.7904053 6.790428 10.605286 16.000225 10.605286 25.60334l0 397.03165c0 19.997467 -16.211182 36.208588 -36.20862 36.208588l-812.1498 0c-19.997452 0 -36.208588 -16.21112 -36.208588 -36.208588z" fill-rule="evenodd"/><path fill="#dd7c09" fill-opacity="0.6519" d="m492.15927 262.84094l2.685791 -0.8815918l16.380066 49.945435l-2.685791 0.8815918zm5.371582 -1.7631836l5.3716125 -1.7632141l16.380066 49.945435l-5.371643 1.7631836zm8.057404 -2.644806l273.677 -89.8329l-5.90448 -18.003677l57.06726 28.870834l-28.878235 57.081924l-5.90448 -18.003662l-273.677 89.83292z" fill-rule="evenodd"/><path fill="#000000" fill-opacity="0.0" d="m132.89764 479.71127l694.2047 0" fill-rule="evenodd"/><path stroke="#595959" stroke-width="1.0" stroke-linejoin="round" stroke-linecap="butt" d="m132.89764 479.71127l694.2047 0" fill-rule="evenodd"/><path fill="#dd7c09" d="m547.8268 347.82678l33.322815 0l0 131.90549l-33.322815 0z" fill-rule="evenodd"/><path stroke="#595959" stroke-width="1.0" stroke-linejoin="round" stroke-linecap="butt" d="m547.8268 347.82678l33.322815 0l0 131.90549l-33.322815 0z" fill-rule="evenodd"/><path fill="#dd7c09" d="m613.10236 330.79004l33.322815 0l0 148.91336l-33.322815 0z" fill-rule="evenodd"/><path stroke="#595959" stroke-width="1.0" stroke-linejoin="round" stroke-linecap="butt" d="m613.10236 330.79004l33.322815 0l0 148.91336l-33.322815 0z" fill-rule="evenodd"/><path fill="#dd7c09" d="m678.3779 301.44882l33.322876 0l0 178.2677l-33.322876 0z" fill-rule="evenodd"/><path stroke="#595959" stroke-width="1.0" stroke-linejoin="round" stroke-linecap="butt" d="m678.3779 301.44882l33.322876 0l0 178.2677l-33.322876 0z" fill-rule="evenodd"/><path fill="#dd7c09" d="m743.65356 260.86877l33.322815 0l0 218.83463l-33.322815 0z" fill-rule="evenodd"/><path stroke="#595959" stroke-width="1.0" stroke-linejoin="round" stroke-linecap="butt" d="m743.65356 260.86877l33.322815 0l0 218.83463l-33.322815 0z" fill-rule="evenodd"/><path fill="#dd7c09" d="m484.4248 39.06144l0 0c0 -4.4971848 3.645691 -8.142872 8.142853 -8.142872l345.64047 0c2.159607 0 4.230774 0.85790825 5.7578735 2.3849907c1.5270996 1.5270844 2.3850098 3.5982552 2.3850098 5.757881l0 89.287575c0 4.497177 -3.645691 8.142868 -8.142883 8.142868l-345.64047 0c-4.497162 0 -8.142853 -3.645691 -8.142853 -8.142868z" fill-rule="evenodd"/><path fill="#000000" fill-opacity="0.0" d="m476.93912 73.82122l376.89822 0l0 22.723648l-376.89822 0z" fill-rule="evenodd"/><path fill="#ffffff" d="m571.1343 92.99492q4.4375 -0.4375 5.625 -1.625q0.890625 -0.875 0.890625 -2.546875q0 -1.859375 -0.890625 -2.734375q-1.078125 -1.09375 -2.65625 -1.234375q-1.421875 4.609375 -3.140625 6.40625l0.59375 1.28125l-2.609375 1.921875l-0.453125 -0.984375q-2.0625 1.75 -3.9375 1.75q-1.328125 0 -2.421875 -1.078125q-1.171875 -1.1875 -1.171875 -3.171875q0 -3.390625 2.296875 -5.703125q1.375 -1.359375 2.59375 -2.015625l0.140625 -2.71875l-3.8125 0.171875l-0.5625 -3.0625l4.515625 -0.09375q0.078125 -1.703125 0.3125 -4.140625l2.28125 0q2.078125 0.421875 0.609375 1.515625q-0.15625 1.46875 -0.21875 2.484375q3.90625 -0.25 7.5625 -0.890625l0.5625 3.078125q-4.484375 0.53125 -8.28125 0.703125l-0.109375 1.796875q0.671875 -0.25 2.6875 -0.328125l0.296875 -1.578125l2.28125 0.359375q1.828125 0.40625 0.5625 1.484375l0 -0.046875q2.578125 0.25 4.296875 1.96875q1.921875 1.9375 1.921875 4.953125q0 2.828125 -1.734375 4.578125q-1.8125 1.796875 -6.234375 2.53125l-1.796875 -3.03125zm-4.96875 -6.671875q0 0 -0.875 0.890625q-1.546875 1.53125 -1.546875 4.046875q0 0.546875 0.421875 0.953125q0.03125 0.046875 0.390625 0.046875q1.203125 0 2.609375 -1.421875q-0.859375 -2.578125 -1.0 -4.515625zm2.84375 -1.359375q0.078125 1.984375 0.5625 3.28125q0.890625 -1.21875 1.40625 -3.609375q-1.0 0 -1.96875 0.328125zm28.5 -2.734375q2.296875 0.421875 0.640625 1.515625l0 4.8125q2.03125 0.640625 5.09375 2.234375l-1.6875 2.640625q-2.421875 -1.4375 -3.5 -1.796875q-0.21875 1.546875 -1.265625 2.609375q-1.28125 1.265625 -3.453125 1.265625q-2.828125 0 -4.015625 -1.171875q-1.078125 -1.09375 -1.078125 -2.796875q0 -1.421875 1.078125 -2.515625q1.375 -1.359375 3.921875 -1.359375q1.671875 0 2.03125 0.109375l0 -5.546875l2.234375 0zm-10.796875 -1.15625q-0.75 0.09375 -3.46875 0.09375l-0.421875 -2.96875q2.90625 0 4.875 -0.15625q0.375 -1.34375 1.15625 -4.671875l2.21875 0.734375q2.109375 0.84375 0.25 1.59375l-0.578125 2.046875q0.8125 -0.09375 2.953125 -0.703125l0.71875 2.96875q-3.171875 0.6875 -4.546875 0.765625q-1.40625 4.484375 -4.5625 10.59375l-2.78125 -1.390625q3.140625 -5.578125 4.1875 -8.90625zm9.421875 -4.03125q3.09375 1.0 7.25 2.59375l-1.25 2.90625q-4.375 -1.875 -7.125 -2.671875l1.125 -2.828125zm-0.859375 13.546875q-0.703125 -0.234375 -2.03125 -0.234375q-1.296875 0 -1.703125 0.421875q-0.328125 0.3125 -0.328125 0.765625q0 0.453125 0.234375 0.671875q0.40625 0.421875 1.609375 0.421875q1.109375 0 1.515625 -0.421875q0.703125 -0.6875 0.703125 -1.625zm29.59375 1.015625l0 3.0625l-4.625 0q-3.6875 0 -7.421875 -1.96875l1.296875 -2.59375q2.78125 1.5 6.125 1.5l4.625 0zm-13.0 -10.015625q-1.359375 8.03125 -3.625 13.375l-3.015625 -0.953125q2.71875 -6.359375 3.640625 -12.140625q-1.640625 0.140625 -3.84375 0.140625l-0.578125 -2.875q3.21875 0 4.859375 -0.15625q0.3125 -2.5 0.671875 -5.1875l2.40625 0.484375q2.234375 0.609375 0.515625 1.5625q-0.234375 0.90625 -0.578125 2.84375q1.453125 -0.1875 3.71875 -0.796875l0.578125 2.890625q-2.953125 0.578125 -4.75 0.8125zm12.625 3.21875q-5.921875 0.203125 -9.4375 1.6875l-0.859375 -2.84375q4.546875 -1.796875 9.734375 -1.796875l0.5625 2.953125zm14.859375 -4.375q-1.578125 9.28125 -3.9375 11.65625q-1.375 1.359375 -2.890625 1.359375q-1.703125 0 -2.703125 -0.984375q-2.390625 -2.40625 -2.390625 -5.984375q0 -4.328125 3.046875 -7.390625q3.34375 -3.328125 8.140625 -3.328125q4.328125 0 6.828125 2.484375q2.765625 2.78125 2.765625 6.546875q0 4.046875 -2.578125 6.640625q-1.65625 1.65625 -5.34375 3.328125l-2.796875 -2.796875q3.953125 -1.234375 5.734375 -3.03125q1.640625 -1.625 1.640625 -3.953125q0 -2.796875 -1.828125 -4.609375q-1.8125 -1.8125 -3.921875 -1.734375l-0.015625 -0.015625q2.125 0.875 0.25 1.8125zm-3.1875 -1.46875q-1.609375 0.375 -3.28125 2.0625q-2.296875 2.28125 -2.296875 5.640625q0 1.953125 1.265625 3.203125q0.125 0.140625 0.484375 0.140625q0.359375 0 0.859375 -0.515625q2.03125 -2.03125 2.96875 -10.53125zm24.109375 -0.359375q-1.765625 2.5625 -3.734375 4.59375l1.609375 -0.078125l-0.9375 -1.40625l2.328125 -1.3125q1.8125 2.15625 3.078125 4.90625l-2.671875 1.265625l-0.53125 -1.0625l-1.640625 0.125l0 10.15625l-2.875 0l0 -9.890625l-2.625 0.203125q-0.171875 1.25 -1.375 0.0625l-0.5 -2.8125l2.453125 0q0.59375 -0.59375 1.171875 -1.234375q-1.09375 -0.96875 -3.28125 -2.578125l1.65625 -2.09375l0.625 0.453125q1.84375 -2.625 2.6875 -4.8125l2.109375 1.25q1.6875 1.125 -0.140625 1.359375q-0.9375 1.59375 -2.609375 3.671875l0.734375 0.59375q1.0625 -1.265625 2.59375 -4.03125l2.15625 1.328125q1.421875 1.125 -0.28125 1.34375zm11.09375 13.5625l1.78125 0l0 2.78125l-13.375 0l0 -2.78125l2.25 0l0 -17.625l9.34375 0l0 17.625zm-2.875 0l0 -4.0625l-3.59375 0l0 4.0625l3.59375 0zm0 -6.84375l0 -2.65625l-3.59375 0l0 2.65625l3.59375 0zm0 -5.4375l0 -2.5625l-3.59375 0l0 2.5625l3.59375 0zm-8.3125 6.375q1.421875 3.078125 1.78125 5.453125l-2.9375 0.875q0 -1.984375 -1.484375 -5.59375l2.640625 -0.734375zm-5.515625 0.671875q1.921875 0.546875 0.25 1.375q-0.4375 2.71875 -1.8125 5.828125l-2.484375 -1.46875q1.203125 -2.40625 1.734375 -6.109375l2.3125 0.375zm41.71875 -1.78125q-0.671875 2.46875 -2.453125 5.40625q0.71875 1.796875 0.9375 1.796875q0 0.046875 0.390625 -2.359375l2.3125 1.390625q-0.6875 4.03125 -2.515625 4.03125q-1.921875 0 -3.046875 -2.484375q-1.53125 1.75 -5.171875 3.1875l-1.296875 -2.625q2.453125 -0.8125 2.40625 -0.734375l-2.234375 0.03125l0 1.40625l-2.59375 0l0 -10.65625l7.0 0l0 7.5q0.765625 -0.640625 0.859375 -0.921875q-0.640625 -2.453125 -0.640625 -7.078125l-8.4375 0l0 -2.5l1.859375 0l-0.359375 -1.71875l-0.9375 0l0 -2.5l2.90625 0l0 -2.8125l2.03125 0q2.046875 0.25 0.5625 1.3125l0 1.5l2.90625 0l0 2.5l-0.96875 0l-0.46875 1.71875l0.90625 0l0 -6.65625l2.03125 0q2.046875 0.25 0.5625 1.3125l0 5.34375l4.3125 0l0 2.5l-4.3125 0q0 4.125 -0.078125 4.078125q0.421875 -0.921875 1.296875 -4.203125l2.40625 0.875q1.15625 1.171875 -0.171875 1.359375zm-21.96875 7.46875q0.734375 -2.828125 0.625 -6.359375l2.3125 0.390625q1.921875 0.546875 0.484375 1.265625q0 2.65625 -0.828125 6.296875l-2.59375 -1.59375zm11.53125 -13.796875l0.40625 1.71875l0.515625 0l0.359375 -1.71875l-1.28125 0zm-10.375 -1.265625l0.609375 0.34375l2.125 -4.65625l2.109375 1.0q1.671875 1.390625 -0.140625 1.390625l-1.828125 3.546875q0.203125 0.125 0.3125 0.203125q0.75 -1.296875 1.703125 -3.4375l2.046875 1.03125q1.375 1.375 -0.1875 1.375q-1.46875 2.671875 -2.796875 4.671875l0.296875 -0.015625l-0.53125 -1.046875l2.046875 -1.109375q1.609375 2.390625 2.4375 4.5625l-2.375 1.1875l-0.53125 -1.265625l-0.59375 0.078125l0 10.5625l-2.59375 0l0 -10.25l-1.390625 0.171875q-0.21875 1.6875 -1.375 -0.046875l-0.890625 -2.5625l2.46875 -0.109375q0.515625 -0.8125 0.921875 -1.515625q-0.984375 -0.65625 -3.21875 -1.828125l1.375 -2.28125zm18.40625 3.234375q-0.609375 -2.171875 -1.71875 -3.890625l2.515625 -1.1875q1.203125 1.9375 1.828125 3.921875l-2.625 1.15625zm-6.453125 9.5l0 -0.875l-1.8125 0l0 0.875l1.8125 0zm0 -3.375l0 -0.875l-1.8125 0l0 0.875l1.8125 0zm-7.046875 5.578125q0.109375 -3.03125 -0.796875 -5.75l2.671875 -0.453125q1.015625 2.71875 1.015625 5.78125l-2.890625 0.421875zm30.875 -12.0625q-1.578125 9.28125 -3.9375 11.65625q-1.375 1.359375 -2.890625 1.359375q-1.703125 0 -2.703125 -0.984375q-2.390625 -2.40625 -2.390625 -5.984375q0 -4.328125 3.046875 -7.390625q3.34375 -3.328125 8.140625 -3.328125q4.328125 0 6.828125 2.484375q2.765625 2.78125 2.765625 6.546875q0 4.046875 -2.578125 6.640625q-1.65625 1.65625 -5.34375 3.328125l-2.796875 -2.796875q3.953125 -1.234375 5.734375 -3.03125q1.640625 -1.625 1.640625 -3.953125q0 -2.796875 -1.828125 -4.609375q-1.8125 -1.8125 -3.921875 -1.734375l-0.015625 -0.015625q2.125 0.875 0.25 1.8125zm-3.1875 -1.46875q-1.609375 0.375 -3.28125 2.0625q-2.296875 2.28125 -2.296875 5.640625q0 1.953125 1.265625 3.203125q0.125 0.140625 0.484375 0.140625q0.359375 0 0.859375 -0.515625q2.03125 -2.03125 2.96875 -10.53125z" fill-rule="nonzero"/><path fill="#ffffff" d="m734.1968 87.510544l3.375 1.0625q-0.78125 2.8125 -2.578125 4.1875q-1.796875 1.359375 -4.5625 1.359375q-3.421875 0 -5.625 -2.34375q-2.203125 -2.34375 -2.203125 -6.390625q0 -4.296875 2.203125 -6.65625q2.21875 -2.375 5.828125 -2.375q3.15625 0 5.125 1.859375q1.171875 1.09375 1.765625 3.15625l-3.4375 0.828125q-0.3125 -1.34375 -1.28125 -2.109375q-0.953125 -0.78125 -2.34375 -0.78125q-1.90625 0 -3.09375 1.375q-1.1875 1.375 -1.1875 4.4375q0 3.265625 1.171875 4.65625q1.171875 1.375 3.046875 1.375q1.375 0 2.375 -0.875q1.0 -0.890625 1.421875 -2.765625zm10.207031 6.3125l0 -14.28125l-5.09375 0l0 -2.90625l13.65625 0l0 2.90625l-5.09375 0l0 14.28125l-3.46875 0zm9.6640625 -8.484375q0 -2.625 0.78125 -4.40625q0.59375 -1.3125 1.59375 -2.359375q1.015625 -1.046875 2.234375 -1.546875q1.59375 -0.671875 3.703125 -0.671875q3.796875 0 6.0625 2.359375q2.28125 2.34375 2.28125 6.546875q0 4.15625 -2.265625 6.515625q-2.25 2.34375 -6.03125 2.34375q-3.84375 0 -6.109375 -2.34375q-2.25 -2.34375 -2.25 -6.4375zm3.578125 -0.125q0 2.921875 1.34375 4.4375q1.34375 1.5 3.421875 1.5q2.078125 0 3.40625 -1.484375q1.328125 -1.5 1.328125 -4.5q0 -2.953125 -1.296875 -4.40625q-1.296875 -1.453125 -3.4375 -1.453125q-2.140625 0 -3.453125 1.484375q-1.3125 1.46875 -1.3125 4.421875z" fill-rule="nonzero"/><path fill="#dd7c09" d="m482.55118 347.82678l33.322845 0l0 131.90549l-33.322845 0z" fill-rule="evenodd"/><path stroke="#595959" stroke-width="1.0" stroke-linejoin="round" stroke-linecap="butt" d="m482.55118 347.82678l33.322845 0l0 131.90549l-33.322845 0z" fill-rule="evenodd"/><path fill="#eeeeee" d="m417.2756 347.82678l33.322815 0l0 131.90549l-33.322815 0z" fill-rule="evenodd"/><path stroke="#595959" stroke-width="1.0" stroke-linejoin="round" stroke-linecap="butt" d="m417.2756 347.82678l33.322815 0l0 131.90549l-33.322815 0z" fill-rule="evenodd"/><path fill="#eeeeee" d="m352.0 347.82678l33.322845 0l0 131.90549l-33.322845 0z" fill-rule="evenodd"/><path stroke="#595959" stroke-width="1.0" stroke-linejoin="round" stroke-linecap="butt" d="m352.0 347.82678l33.322845 0l0 131.90549l-33.322845 0z" fill-rule="evenodd"/><path fill="#eeeeee" d="m286.7244 374.1601l33.322845 0l0 105.5748l-33.322845 0z" fill-rule="evenodd"/><path stroke="#595959" stroke-width="1.0" stroke-linejoin="round" stroke-linecap="butt" d="m286.7244 374.1601l33.322845 0l0 105.5748l-33.322845 0z" fill-rule="evenodd"/><path fill="#eeeeee" d="m221.44882 374.15747l33.32283 0l0 105.5748l-33.32283 0z" fill-rule="evenodd"/><path stroke="#595959" stroke-width="1.0" stroke-linejoin="round" stroke-linecap="butt" d="m221.44882 374.15747l33.32283 0l0 105.5748l-33.32283 0z" fill-rule="evenodd"/><path fill="#eeeeee" d="m156.17323 347.82678l33.32283 0l0 131.90549l-33.32283 0z" fill-rule="evenodd"/><path stroke="#595959" stroke-width="1.0" stroke-linejoin="round" stroke-linecap="butt" d="m156.17323 347.82678l33.32283 0l0 131.90549l-33.32283 0z" fill-rule="evenodd"/><path fill="#000000" fill-opacity="0.0" d="m469.5643 479.36484l0 -446.01575" fill-rule="evenodd"/><path stroke="#595959" stroke-width="1.0" stroke-linejoin="round" stroke-linecap="butt" stroke-dasharray="4.0,3.0" d="m469.5643 479.36484l0 -446.01575" fill-rule="evenodd"/><path fill="#f3f3f3" d="m62.154457 39.06144l0 0c0 -4.4971848 3.645691 -8.142872 8.142868 -8.142872l345.64044 0c2.159607 0 4.2308044 0.85790825 5.7578735 2.3849907c1.5270996 1.5270844 2.3850098 3.5982552 2.3850098 5.757881l0 89.287575c0 4.497177 -3.645691 8.142868 -8.142883 8.142868l-345.64044 0c-4.497177 0 -8.142868 -3.645691 -8.142868 -8.142868z" fill-rule="evenodd"/><path fill="#000000" fill-opacity="0.0" d="m54.668774 73.82122l376.89822 0l0 22.723648l-376.89822 0z" fill-rule="evenodd"/><path fill="#666666" d="m148.86397 78.59492q4.4375 -0.4375 5.625 -1.625q0.890625 -0.875 0.890625 -2.546875q0 -1.859375 -0.890625 -2.734375q-1.078125 -1.09375 -2.65625 -1.234375q-1.421875 4.609375 -3.140625 6.40625l0.59375 1.28125l-2.609375 1.921875l-0.453125 -0.984375q-2.0625 1.75 -3.9375 1.75q-1.328125 0 -2.421875 -1.078125q-1.171875 -1.1875 -1.171875 -3.171875q0 -3.390625 2.296875 -5.703125q1.375 -1.359375 2.59375 -2.015625l0.140625 -2.71875l-3.8125 0.171875l-0.5625 -3.0625l4.515625 -0.09375q0.078125 -1.703125 0.3125 -4.140625l2.28125 0q2.078125 0.421875 0.609375 1.515625q-0.15625 1.46875 -0.21875 2.484375q3.90625 -0.25 7.5625 -0.890625l0.5625 3.078125q-4.484375 0.53125 -8.28125 0.703125l-0.109375 1.796875q0.671875 -0.25 2.6875 -0.328125l0.296875 -1.578125l2.28125 0.359375q1.828125 0.40625 0.5625 1.484375l0 -0.046875q2.578125 0.25 4.296875 1.96875q1.921875 1.9375 1.921875 4.953125q0 2.828125 -1.734375 4.578125q-1.8125 1.796875 -6.234375 2.53125l-1.796875 -3.03125zm-4.96875 -6.671875q0 0 -0.875 0.890625q-1.546875 1.53125 -1.546875 4.046875q0 0.546875 0.421875 0.953125q0.03125 0.046875 0.390625 0.046875q1.203125 0 2.609375 -1.421875q-0.859375 -2.578125 -1.0 -4.515625zm2.84375 -1.359375q0.078125 1.984375 0.5625 3.28125q0.890625 -1.21875 1.40625 -3.609375q-1.0 0 -1.96875 0.328125zm28.5 -2.734375q2.296875 0.421875 0.640625 1.515625l0 4.8125q2.03125 0.640625 5.09375 2.234375l-1.6875 2.640625q-2.421875 -1.4375 -3.5 -1.796875q-0.21875 1.546875 -1.265625 2.609375q-1.28125 1.265625 -3.453125 1.265625q-2.828125 0 -4.015625 -1.171875q-1.078125 -1.09375 -1.078125 -2.796875q0 -1.421875 1.078125 -2.515625q1.375 -1.359375 3.921875 -1.359375q1.671875 0 2.03125 0.109375l0 -5.546875l2.234375 0zm-10.796875 -1.15625q-0.75 0.09375 -3.46875 0.09375l-0.421875 -2.96875q2.90625 0 4.875 -0.15625q0.375 -1.34375 1.15625 -4.671875l2.21875 0.734375q2.109375 0.84375 0.25 1.59375l-0.578125 2.046875q0.8125 -0.09375 2.953125 -0.703125l0.71875 2.96875q-3.171875 0.6875 -4.546875 0.765625q-1.40625 4.484375 -4.5625 10.59375l-2.78125 -1.390625q3.140625 -5.578125 4.1875 -8.90625zm9.421875 -4.03125q3.09375 1.0 7.25 2.59375l-1.25 2.90625q-4.375 -1.875 -7.125 -2.671875l1.125 -2.828125zm-0.859375 13.546875q-0.703125 -0.234375 -2.03125 -0.234375q-1.296875 0 -1.703125 0.421875q-0.328125 0.3125 -0.328125 0.765625q0 0.453125 0.234375 0.671875q0.40625 0.421875 1.609375 0.421875q1.109375 0 1.515625 -0.421875q0.703125 -0.6875 0.703125 -1.625zm29.59375 1.015625l0 3.0625l-4.625 0q-3.6875 0 -7.421875 -1.96875l1.296875 -2.59375q2.78125 1.5 6.125 1.5l4.625 0zm-13.0 -10.015625q-1.359375 8.03125 -3.625 13.375l-3.015625 -0.953125q2.71875 -6.359375 3.640625 -12.140625q-1.640625 0.140625 -3.84375 0.140625l-0.578125 -2.875q3.21875 0 4.859375 -0.15625q0.3125 -2.5 0.671875 -5.1875l2.40625 0.484375q2.234375 0.609375 0.515625 1.5625q-0.234375 0.90625 -0.578125 2.84375q1.453125 -0.1875 3.71875 -0.796875l0.578125 2.890625q-2.953125 0.578125 -4.75 0.8125zm12.625 3.21875q-5.921875 0.203125 -9.4375 1.6875l-0.859375 -2.84375q4.546875 -1.796875 9.734375 -1.796875l0.5625 2.953125zm14.859375 -4.375q-1.578125 9.28125 -3.9375 11.65625q-1.375 1.359375 -2.890625 1.359375q-1.703125 0 -2.703125 -0.984375q-2.390625 -2.40625 -2.390625 -5.984375q0 -4.328125 3.046875 -7.390625q3.34375 -3.328125 8.140625 -3.328125q4.328125 0 6.828125 2.484375q2.765625 2.78125 2.765625 6.546875q0 4.046875 -2.578125 6.640625q-1.65625 1.65625 -5.34375 3.328125l-2.796875 -2.796875q3.953125 -1.234375 5.734375 -3.03125q1.640625 -1.625 1.640625 -3.953125q0 -2.796875 -1.828125 -4.609375q-1.8125 -1.8125 -3.921875 -1.734375l-0.015625 -0.015625q2.125 0.875 0.25 1.8125zm-3.1875 -1.46875q-1.609375 0.375 -3.28125 2.0625q-2.296875 2.28125 -2.296875 5.640625q0 1.953125 1.265625 3.203125q0.125 0.140625 0.484375 0.140625q0.359375 0 0.859375 -0.515625q2.03125 -2.03125 2.96875 -10.53125zm24.109375 -0.359375q-1.765625 2.5625 -3.734375 4.59375l1.609375 -0.078125l-0.9375 -1.40625l2.328125 -1.3125q1.8125 2.15625 3.078125 4.90625l-2.671875 1.265625l-0.53125 -1.0625l-1.640625 0.125l0 10.15625l-2.875 0l0 -9.890625l-2.625 0.203125q-0.171875 1.25 -1.375 0.0625l-0.5 -2.8125l2.453125 0q0.59375 -0.59375 1.171875 -1.234375q-1.09375 -0.96875 -3.28125 -2.578125l1.65625 -2.09375l0.625 0.453125q1.84375 -2.625 2.6875 -4.8125l2.109375 1.25q1.6875 1.125 -0.140625 1.359375q-0.9375 1.59375 -2.609375 3.671875l0.734375 0.59375q1.0625 -1.265625 2.59375 -4.03125l2.15625 1.328125q1.421875 1.125 -0.28125 1.34375zm11.09375 13.5625l1.78125 0l0 2.78125l-13.375 0l0 -2.78125l2.25 0l0 -17.625l9.34375 0l0 17.625zm-2.875 0l0 -4.0625l-3.59375 0l0 4.0625l3.59375 0zm0 -6.84375l0 -2.65625l-3.59375 0l0 2.65625l3.59375 0zm0 -5.4375l0 -2.5625l-3.59375 0l0 2.5625l3.59375 0zm-8.3125 6.375q1.421875 3.078125 1.78125 5.453125l-2.9375 0.875q0 -1.984375 -1.484375 -5.59375l2.640625 -0.734375zm-5.515625 0.671875q1.921875 0.546875 0.25 1.375q-0.4375 2.71875 -1.8125 5.828125l-2.484375 -1.46875q1.203125 -2.40625 1.734375 -6.109375l2.3125 0.375zm41.718735 -1.78125q-0.671875 2.46875 -2.453125 5.40625q0.71875 1.796875 0.9375 1.796875q0 0.046875 0.390625 -2.359375l2.3125 1.390625q-0.6875 4.03125 -2.515625 4.03125q-1.921875 0 -3.046875 -2.484375q-1.53125 1.75 -5.171875 3.1875l-1.296875 -2.625q2.453125 -0.8125 2.40625 -0.734375l-2.234375 0.03125l0 1.40625l-2.59375 0l0 -10.65625l7.0 0l0 7.5q0.765625 -0.640625 0.859375 -0.921875q-0.640625 -2.453125 -0.640625 -7.078125l-8.4375 0l0 -2.5l1.859375 0l-0.359375 -1.71875l-0.9375 0l0 -2.5l2.90625 0l0 -2.8125l2.03125 0q2.046875 0.25 0.5625 1.3125l0 1.5l2.90625 0l0 2.5l-0.96875 0l-0.46875 1.71875l0.90625 0l0 -6.65625l2.03125 0q2.046875 0.25 0.5625 1.3125l0 5.34375l4.3125 0l0 2.5l-4.3125 0q0 4.125 -0.078125 4.078125q0.421875 -0.921875 1.296875 -4.203125l2.40625 0.875q1.15625 1.171875 -0.171875 1.359375zm-21.968735 7.46875q0.734375 -2.828125 0.625 -6.359375l2.3125 0.390625q1.9218597 0.546875 0.484375 1.265625q0 2.65625 -0.828125 6.296875l-2.59375 -1.59375zm11.531235 -13.796875l0.40625 1.71875l0.515625 0l0.359375 -1.71875l-1.28125 0zm-10.374985 -1.265625l0.609375 0.34375l2.1249847 -4.65625l2.109375 1.0q1.671875 1.390625 -0.140625 1.390625l-1.828125 3.546875q0.203125 0.125 0.3125 0.203125q0.75 -1.296875 1.703125 -3.4375l2.046875 1.03125q1.375 1.375 -0.1875 1.375q-1.46875 2.671875 -2.796875 4.671875l0.296875 -0.015625l-0.53125 -1.046875l2.046875 -1.109375q1.609375 2.390625 2.4375 4.5625l-2.375 1.1875l-0.53125 -1.265625l-0.59375 0.078125l0 10.5625l-2.5937347 0l0 -10.25l-1.390625 0.171875q-0.21875 1.6875 -1.375 -0.046875l-0.890625 -2.5625l2.46875 -0.109375q0.515625 -0.8125 0.921875 -1.515625q-0.984375 -0.65625 -3.21875 -1.828125l1.375 -2.28125zm18.406235 3.234375q-0.609375 -2.171875 -1.71875 -3.890625l2.515625 -1.1875q1.203125 1.9375 1.828125 3.921875l-2.625 1.15625zm-6.453125 9.5l0 -0.875l-1.8125 0l0 0.875l1.8125 0zm0 -3.375l0 -0.875l-1.8125 0l0 0.875l1.8125 0zm-7.046875 5.578125q0.109375 -3.03125 -0.796875 -5.75l2.671875 -0.453125q1.015625 2.71875 1.015625 5.78125l-2.890625 0.421875zm30.875 -12.0625q-1.578125 9.28125 -3.9375 11.65625q-1.375 1.359375 -2.890625 1.359375q-1.703125 0 -2.703125 -0.984375q-2.390625 -2.40625 -2.390625 -5.984375q0 -4.328125 3.046875 -7.390625q3.34375 -3.328125 8.140625 -3.328125q4.328125 0 6.828125 2.484375q2.765625 2.78125 2.765625 6.546875q0 4.046875 -2.578125 6.640625q-1.65625 1.65625 -5.34375 3.328125l-2.796875 -2.796875q3.953125 -1.234375 5.734375 -3.03125q1.640625 -1.625 1.640625 -3.953125q0 -2.796875 -1.828125 -4.609375q-1.8125 -1.8125 -3.921875 -1.734375l-0.015625 -0.015625q2.125 0.875 0.25 1.8125zm-3.1875 -1.46875q-1.609375 0.375 -3.28125 2.0625q-2.296875 2.28125 -2.296875 5.640625q0 1.953125 1.265625 3.203125q0.125 0.140625 0.484375 0.140625q0.359375 0 0.859375 -0.515625q2.03125 -2.03125 2.96875 -10.53125z" fill-rule="nonzero"/><path fill="#666666" d="m311.92645 73.11054l3.375 1.0625q-0.78125 2.8125 -2.578125 4.1875q-1.796875 1.359375 -4.5625 1.359375q-3.421875 0 -5.625 -2.34375q-2.203125 -2.34375 -2.203125 -6.390625q0 -4.296875 2.203125 -6.65625q2.21875 -2.375 5.828125 -2.375q3.15625 0 5.125 1.859375q1.171875 1.09375 1.765625 3.15625l-3.4375 0.828125q-0.3125 -1.34375 -1.28125 -2.109375q-0.953125 -0.78125 -2.34375 -0.78125q-1.90625 0 -3.09375 1.375q-1.1875 1.375 -1.1875 4.4375q0 3.265625 1.171875 4.65625q1.171875 1.375 3.046875 1.375q1.375 0 2.375 -0.875q1.0 -0.890625 1.421875 -2.765625zm10.207031 6.3125l0 -14.28125l-5.09375 0l0 -2.90625l13.65625 0l0 2.90625l-5.09375 0l0 14.28125l-3.46875 0zm9.6640625 -8.484375q0 -2.625 0.78125 -4.40625q0.59375 -1.3125 1.59375 -2.359375q1.015625 -1.046875 2.234375 -1.546875q1.59375 -0.671875 3.703125 -0.671875q3.796875 0 6.0625 2.359375q2.28125 2.34375 2.28125 6.546875q0 4.15625 -2.265625 6.515625q-2.25 2.34375 -6.03125 2.34375q-3.84375 0 -6.109375 -2.34375q-2.25 -2.34375 -2.25 -6.4375zm3.578125 -0.125q0 2.921875 1.34375 4.4375q1.34375 1.5 3.421875 1.5q2.078125 0 3.40625 -1.484375q1.328125 -1.5 1.328125 -4.5q0 -2.953125 -1.296875 -4.40625q-1.296875 -1.453125 -3.4375 -1.453125q-2.140625 0 -3.453125 1.484375q-1.3125 1.46875 -1.3125 4.421875z" fill-rule="nonzero"/><path fill="#666666" d="m209.27412 97.066795l0 -2.78125l4.78125 0l0 -2.0625l-3.8125 0.28125l-0.734375 -2.6875q5.828125 -0.3125 10.171875 -1.21875l1.171875 1.984375q0.25 1.765625 -1.15625 0.96875l-2.765625 0.3125l0 2.421875l5.0625 0l0 2.78125l-5.0625 0l0 1.234375q2.703125 1.21875 4.84375 3.484375l-2.046875 2.59375q-1.75 -2.0 -2.796875 -2.734375l0 8.453125l-2.875 0l0 -7.703125q-0.703125 1.25 -3.859375 3.84375l-1.640625 -2.875q3.984375 -2.984375 5.109375 -6.296875l-4.390625 0zm19.75 -8.125q2.046875 0.25 0.5625 1.3125l0 17.65625q0 2.0 -2.0 2.0l-2.5625 0l-0.578125 -2.78125l2.484375 0q0 0.21875 -0.21875 0.21875l0 -18.40625l2.3125 0zm-4.78125 2.34375q2.046875 0.25 0.5625 1.3125l0 12.8125l-2.875 0l0 -14.125l2.3125 0zm26.28125 11.125l-5.09375 0l0 7.125l-2.875 0l0 -7.125l-4.640625 0q-0.171875 4.578125 -3.375 8.0l-2.203125 -2.203125q2.71875 -3.015625 2.71875 -6.578125l0 -12.5l18.34375 0l0 18.40625q0 2.0 -2.0 2.0l-3.03125 0l-0.6875 -3.0625l2.96875 0q0 0.125 -0.125 0.125l0 -4.1875zm-12.59375 -5.25l0 2.46875l4.625 0l0 -2.46875l-4.625 0zm0 -5.25l0 2.46875l4.625 0l0 -2.46875l-4.625 0zm7.5 5.25l0 2.46875l5.09375 0l0 -2.46875l-5.09375 0zm0 -5.25l0 2.46875l5.09375 0l0 -2.46875l-5.09375 0zm18.874985 6.21875l0 -0.875l-3.125 0l0 0.875l3.125 0zm0 2.78125l-3.125 0l0 0.96875l3.125 0l0 -0.96875zm0.21875 6.40625q0 0.21875 -0.21875 0.21875l0 -2.875l-3.125 0l0 5.625l-2.875 0l0 -15.8125l8.875 0l0 13.53125q0 2.09375 -2.0 2.09375l-2.265625 0l-0.734375 -2.78125l2.34375 0zm4.375 -12.375l2.875 0l0 11.78125l-2.875 0l0 -11.78125zm5.28125 12.28125q0 0.21875 -0.21875 0.21875l0 -13.25l2.328125 0q2.171875 0.4375 0.546875 1.515625l0 12.203125q0 2.09375 -2.0 2.09375l-2.46875 0l-0.578125 -2.78125l2.390625 0zm-1.28125 -17.328125q-0.4375 0.828125 -0.796875 1.390625l6.703125 0l0 2.78125l-22.5625 0l0 -2.78125l6.109375 0q-0.234375 -0.546875 -1.3125 -1.90625l2.546875 -1.40625q1.359375 1.359375 2.28125 3.3125l2.875 0q0.859375 -1.5 1.671875 -3.703125l2.71875 0.953125q1.171875 1.171875 -0.234375 1.359375z" fill-rule="nonzero"/></g></svg>
